<svg preserveAspectRatio="none" width="100%" height="100%" overflow="visible" style="display: block;" viewBox="0 0 24 24" fill="none" xmlns="http://www.w3.org/2000/svg">
<g id="Chrome Icon">
<g id="vector">
<path d="M11.2501 20.5839C16.4047 20.5839 20.5834 16.4052 20.5834 11.2505C20.5834 10.1634 20.3975 9.11966 20.0558 8.14939L14.3085 8.14939C15.1093 8.93921 15.6057 10.0369 15.6057 11.2506C15.6057 12.2063 15.2979 13.0901 14.776 13.8083L10.8685 20.5762C10.9951 20.5813 11.1223 20.5839 11.2501 20.5839Z" fill="var(--fill-0, white)"/>
<path d="M9.51959 20.4238L12.3877 15.4561C12.0251 15.5539 11.6437 15.6061 11.2501 15.6061C10.1089 15.6061 9.07025 15.1672 8.29365 14.449C8.25909 14.4238 8.22662 14.3947 8.19689 14.3616L8.15582 14.3159C8.05544 14.2145 7.95999 14.1083 7.86988 13.9976L2.49368 8.01267C2.12056 9.02136 1.91675 10.1122 1.91675 11.2505C1.91675 15.8139 5.19175 19.6124 9.51959 20.4238Z" fill="var(--fill-0, white)"/>
<path d="M3.04301 6.80215C4.62344 3.89248 7.70609 1.91721 11.2501 1.91721C14.8357 1.91721 17.949 3.9391 19.5122 6.90494L11.5466 6.90494C11.4486 6.89836 11.3498 6.89501 11.2501 6.89501C11.1505 6.89501 11.0517 6.89836 10.9537 6.90494H10.9178C10.871 6.90494 10.8253 6.91012 10.7814 6.91994C8.66024 7.1469 6.99454 8.89661 6.89892 11.0545L3.18416 6.91912C3.14201 6.87219 3.09433 6.83317 3.04301 6.80215Z" fill="var(--fill-0, white)"/>
<path d="M11.2501 8.13943C11.5386 8.13943 11.818 8.17872 12.0831 8.25223C12.4152 8.3443 12.725 8.49006 13.0025 8.67959C13.8228 9.23978 14.3612 10.1823 14.3612 11.2506C14.3612 11.9032 14.1603 12.5089 13.8169 13.0092C13.7903 13.0479 13.7625 13.0864 13.7342 13.1239C13.1662 13.8756 12.2648 14.3617 11.2501 14.3617C10.823 14.3617 10.4159 14.2756 10.0453 14.1198C9.9411 14.076 9.83977 14.0267 9.74169 13.9722C8.78583 13.4413 8.13898 12.4215 8.13898 11.2505C8.13898 9.53233 9.53187 8.13943 11.2501 8.13943Z" fill="var(--fill-0, white)"/>
</g>
</g>
</svg>
