<svg preserveAspectRatio="none" width="100%" height="100%" overflow="visible" viewBox="0 0 220 188.521" fill="none" xmlns="http://www.w3.org/2000/svg">
<path d="M26.9617 177.77H193.038C202.476 177.77 207.195 177.77 210.799 176.012C213.97 174.466 216.548 171.999 218.163 168.964C220 165.514 220 160.998 220 151.966V43.1977C220 34.1657 220 29.6496 218.163 26.1998C216.548 23.1653 213.97 20.6982 210.799 19.152C207.195 17.3943 202.476 17.3943 193.038 17.3943H88.7817C85.1477 17.3943 81.6763 15.8878 79.1942 13.2335L71.6148 5.12835C68.5555 1.85686 64.2769 1.58759e-05 59.7979 0H32.2979H15.2128C6.81099 0 0 6.81099 0 15.2128L0 33.234V151.966C0 160.998 -1.116e-07 165.514 1.83666 168.964C3.45222 171.999 6.03011 174.466 9.20084 176.012C12.8055 177.77 17.5242 177.77 26.9617 177.77Z" fill="url(#paint0_linear_0_4)"/>
<path d="M193.038 176.366V177.77H26.9617V176.366H193.038ZM0 15.2128C0 6.81099 6.81099 0 15.2128 0H59.7979C64.2769 1.58759e-05 68.5555 1.8569 71.6147 5.12837L79.1941 13.2335C81.6374 15.8462 85.0394 17.3469 88.6114 17.3932L88.7817 17.3943H193.038C202.476 17.3943 207.195 17.3942 210.799 19.1519C213.97 20.6981 216.548 23.1653 218.163 26.1997C220 29.6495 220 34.1657 220 43.1978V151.967C220 160.999 220 165.515 218.163 168.964L218.009 169.247C216.386 172.152 213.871 174.514 210.799 176.012L210.629 176.093C207.046 177.77 202.328 177.77 193.038 177.77V176.366C197.779 176.366 201.254 176.365 203.997 176.15C206.724 175.937 208.607 175.519 210.184 174.75C213.096 173.33 215.451 171.07 216.924 168.304C217.716 166.816 218.15 165.037 218.371 162.439C218.595 159.824 218.596 156.507 218.596 151.967V43.1978C218.596 38.6575 218.595 35.3405 218.371 32.7248C218.15 30.1275 217.716 28.3484 216.924 26.8598C215.451 24.0941 213.096 21.8342 210.184 20.4143C208.607 19.6453 206.724 19.2272 203.997 19.0139C201.254 18.7995 197.779 18.7986 193.038 18.7986H88.7817C84.759 18.7986 80.9162 17.1309 78.1686 14.1927L70.5892 6.08739C67.8391 3.14654 64.0099 1.45746 59.9894 1.4054L59.7979 1.40426H15.2128C7.58654 1.40426 1.40426 7.58654 1.40426 15.2128V151.967C1.40426 156.507 1.4054 159.824 1.6287 162.439C1.85043 165.037 2.28365 166.816 3.07615 168.304C4.54861 171.07 6.90446 173.33 9.8163 174.75C11.3932 175.519 13.2756 175.937 16.0033 176.15C18.7458 176.365 22.2208 176.366 26.9617 176.366V177.77L25.2467 177.769C16.9388 177.763 12.5802 177.66 9.2008 176.012C6.12916 174.514 3.61395 172.152 1.99096 169.247L1.83669 168.964C3.61585e-05 165.515 0 160.999 0 151.967V15.2128Z" fill="url(#paint1_linear_0_4)" fill-opacity="0.07"/>
<path d="M7.02136 33.1154C7.02136 29.3669 10.0601 26.3281 13.8086 26.3281H205.958C209.706 26.3281 212.745 29.3669 212.745 33.1154V163.945C212.745 167.694 209.706 170.732 205.958 170.732H13.8086C10.0601 170.732 7.02136 167.694 7.02136 163.945V33.1154Z" fill="white"/>
<defs>
<linearGradient id="paint0_linear_0_4" x1="110" y1="0.819149" x2="110" y2="188.521" gradientUnits="userSpaceOnUse">
<stop stop-color="#2BC5F4"/>
<stop offset="0.0151228" stop-color="#00A7DE"/>
</linearGradient>
<linearGradient id="paint1_linear_0_4" x1="110" y1="27.8097" x2="110" y2="42.5929" gradientUnits="userSpaceOnUse">
<stop stop-color="#003C5C"/>
<stop offset="1" stop-color="#003C5C" stop-opacity="0"/>
</linearGradient>
</defs>
</svg>
